<svg width="1522" height="293" viewBox="0 0 1522 293" fill="none" xmlns="http://www.w3.org/2000/svg">
<path fill-rule="evenodd" clip-rule="evenodd" d="M1522 0L1470.5 26.4514C1421.87 54.9375 1318.88 107.84 1218.74 113.944C1115.75 120.049 1015.62 75.2847 912.628 81.3889C812.496 87.4931 709.504 140.396 609.372 168.882C506.38 195.333 406.248 195.333 303.256 168.882C203.124 140.396 100.132 87.4931 51.4962 59.0069L-2.86102e-05 32.5556V293H51.4962C100.132 293 203.124 293 303.256 293C406.248 293 506.38 293 609.372 293C709.504 293 812.496 293 912.628 293C1015.62 293 1115.75 293 1218.74 293C1318.88 293 1421.87 293 1470.5 293H1522V0Z" fill="#282A36"/>
</svg>
