<?xml version="1.0" encoding="UTF-8" standalone="no"?>
<svg
   width="16"
   height="16"
   fill="currentColor"
   class="bi bi-calendar-date"
   viewBox="0 0 16 16"
   version="1.1"
   id="svg133"
   sodipodi:docname="calendar-date.svg"
   inkscape:version="1.2 (dc2aedaf03, 2022-05-15)"
   xmlns:inkscape="http://www.inkscape.org/namespaces/inkscape"
   xmlns:sodipodi="http://sodipodi.sourceforge.net/DTD/sodipodi-0.dtd"
   xmlns="http://www.w3.org/2000/svg"
   xmlns:svg="http://www.w3.org/2000/svg">
  <defs
     id="defs137" />
  <sodipodi:namedview
     id="namedview135"
     pagecolor="#ffffff"
     bordercolor="#000000"
     borderopacity="0.25"
     inkscape:showpageshadow="2"
     inkscape:pageopacity="0.0"
     inkscape:pagecheckerboard="0"
     inkscape:deskcolor="#d1d1d1"
     showgrid="false"
     inkscape:zoom="49.25"
     inkscape:cx="5.4213198"
     inkscape:cy="8"
     inkscape:window-width="1920"
     inkscape:window-height="1000"
     inkscape:window-x="0"
     inkscape:window-y="44"
     inkscape:window-maximized="1"
     inkscape:current-layer="svg133" />
  <text
     xml:space="preserve"
     style="font-size:8px;fill:#000000"
     x="4.0398436"
     y="12.365625"
     id="text301"><tspan
       sodipodi:role="line"
       id="tspan299"
       x="4.0398436"
       y="12.365625"
       style="font-style:normal;font-variant:normal;font-weight:500;font-stretch:normal;font-size:8px;font-family:Roboto;-inkscape-font-specification:'Roboto Medium'">01</tspan></text>
  <path
     d="M 3.5,0 A 0.5,0.5 0 0 1 4,0.5 V 1 h 8 V 0.5 a 0.5,0.5 0 0 1 1,0 V 1 h 1 a 2,2 0 0 1 2,2 v 11 a 2,2 0 0 1 -2,2 H 2 A 2,2 0 0 1 0,14 V 3 A 2,2 0 0 1 2,1 H 3 V 0.5 A 0.5,0.5 0 0 1 3.5,0 Z M 1,4 v 10 a 1,1 0 0 0 1,1 h 12 a 1,1 0 0 0 1,-1 V 4 Z"
     id="path131"
     style="display:inline" />
</svg>
